<?xml version="1.0" encoding="UTF-8"?>
<svg width="15px" height="15px" viewBox="0 0 15 15" version="1.1" xmlns="http://www.w3.org/2000/svg" xmlns:xlink="http://www.w3.org/1999/xlink">
    <!-- Generator: Sketch 52.5 (67469) - http://www.bohemiancoding.com/sketch -->
    <title>Weibo</title>
    <desc>Created with Sketch.</desc>
    <g id="Page-1" stroke="none" stroke-width="1" fill="none" fill-rule="evenodd">
        <g id="chinese_homepge_dark" transform="translate(-609.000000, -3037.000000)">
            <g id="Footers#4" transform="translate(0.000000, 2858.000000)">
                <g id="Weibo" transform="translate(609.000000, 179.000000)">
                    <path d="M7.5,15 C11.6421356,15 15,11.6421356 15,7.5 C15,3.35786438 11.6421356,0 7.5,0 C3.35786438,0 0,3.35786438 0,7.5 C0,11.6421356 3.35786438,15 7.5,15 Z" id="Oval" fill="#FFFFFF"></path>
                    <g id="Sina_Weibo" transform="translate(4.000000, 3.000000)">
                        <path d="M0.75,5.37931034 C0.75,6.52211591 2.09352078,7.44827586 3.75,7.44827586 C5.40647922,7.44827586 6.75,6.52211591 6.75,5.37931034 C6.75,4.23650478 5.40647922,3.31034483 3.75,3.31034483 C2.09352078,3.31034483 0.75,4.23650478 0.75,5.37931034" id="Shape" fill="#FFFFFF"></path>
                        <path d="M3.73279721,7.4119213 C2.26174412,7.57466866 0.991734957,6.83204834 0.896116506,5.75572755 C0.800498055,4.67803914 1.91604665,3.67420247 3.38587386,3.5114551 C4.85692694,3.34870774 6.12693611,4.09132806 6.22132868,5.16764885 C6.31817301,6.24533726 5.20262442,7.25054156 3.73279721,7.4119213 M6.67367751,3.8355822 C6.548638,3.79318583 6.46282657,3.76583333 6.52779808,3.5825716 C6.66999988,3.18459275 6.68471041,2.84131891 6.53024983,2.59514643 C6.2421686,2.13562446 5.45270345,2.16024171 4.5480058,2.5828378 C4.5480058,2.5828378 4.2636022,2.72096792 4.33715485,2.47069256 C4.47567902,1.97150947 4.4548391,1.55438388 4.23908465,1.31231428 C3.74873362,0.763896695 2.443174,1.33282865 1.32394778,2.58147018 C0.486673397,3.51555798 0,4.50708603 0,5.36458683 C0,7.00300145 1.88417383,8 3.72666782,8 C6.14287252,8 7.74999802,6.4340695 7.74999802,5.19089847 C7.7512239,4.43870478 7.18364258,4.01200581 6.67367751,3.8355822" id="Shape" fill="#E6162D"></path>
                        <path d="M8.3673727,0.840859145 C7.75820505,0.139738721 6.85981073,-0.127165076 6.03052367,0.0560823069 L6.03052367,0.0560823069 C5.83855907,0.0985744538 5.71698149,0.295100633 5.75793394,0.492954692 C5.79888638,0.692136631 5.98701169,0.818285192 6.17897629,0.775793045 C6.76894748,0.645660845 7.40754971,0.835547626 7.84010994,1.33350247 C8.27267017,1.83145732 8.39040845,2.51000379 8.20484268,3.10489385 L8.20484268,3.10489385 C8.14469377,3.29876427 8.24707489,3.50591348 8.43392043,3.56832382 C8.62076597,3.63073416 8.82040915,3.5245038 8.88055806,3.33196126 L8.88055806,3.33063338 C9.14162991,2.49539711 8.97654036,1.54065169 8.3673727,0.840859145" id="Shape" fill="#FF9933"></path>
                        <path d="M7.43093665,1.80792848 C7.12302011,1.45022721 6.66910867,1.3138275 6.25103234,1.40847219 C6.07982013,1.4460517 5.97098756,1.62420642 6.00682267,1.80375298 C6.04398501,1.98329953 6.21254277,2.0974299 6.38242776,2.05845856 L6.38242776,2.05845856 C6.58682063,2.01252804 6.80979467,2.07933606 6.95977126,2.25331528 C7.10974785,2.42868633 7.15089187,2.6666899 7.08585777,2.87546497 L7.08585777,2.87546497 C7.03276871,3.04944419 7.12302011,3.23734174 7.29025064,3.29440693 C7.45748117,3.35008028 7.63532952,3.25543558 7.6897458,3.08006453 C7.82114122,2.65277157 7.73885318,2.16562975 7.43093665,1.80792848" id="Shape" fill="#FF9933"></path>
                        <path d="M3.97160412,5.59546696 C3.9167767,5.69445132 3.79537312,5.74119393 3.70138326,5.69995045 C3.60739339,5.66008175 3.57867427,5.54872435 3.63219627,5.45248957 C3.68702369,5.35625478 3.80320561,5.30951217 3.89589006,5.34800608 C3.98987993,5.38375043 4.02382072,5.49510783 3.97160412,5.59546696 M3.47163025,6.26911048 C3.32020213,6.52344527 2.99515385,6.63480267 2.75104128,6.51794614 C2.51084495,6.4024644 2.43904714,6.10688612 2.59047526,5.85805046 C2.74059796,5.61058957 3.05389751,5.50060696 3.29670467,5.60784001 C3.54212265,5.71919741 3.62044754,6.01202612 3.47163025,6.26911048 M4.04079111,4.46814517 C3.29539925,4.26330255 2.4534067,4.65511561 2.12966383,5.3466313 C1.79939388,6.05189481 2.11922051,6.83552094 2.87113944,7.09123052 C3.65177749,7.35656358 4.57078952,6.9496279 4.89061615,6.18937308 C5.20652653,5.44424087 4.81229126,4.67848692 4.04079111,4.46814517" id="Shape" fill="#000000"></path>
                    </g>
                </g>
            </g>
        </g>
    </g>
</svg>