<?xml version="1.0" encoding="UTF-8"?>
<svg width="15px" height="15px" viewBox="0 0 15 15" version="1.1" xmlns="http://www.w3.org/2000/svg" xmlns:xlink="http://www.w3.org/1999/xlink">
    <!-- Generator: Sketch 52.5 (67469) - http://www.bohemiancoding.com/sketch -->
    <title>Wechat</title>
    <desc>Created with Sketch.</desc>
    <g id="Page-1" stroke="none" stroke-width="1" fill="none" fill-rule="evenodd">
        <g id="chinese_homepge_dark" transform="translate(-587.000000, -3037.000000)">
            <g id="Footers#4" transform="translate(0.000000, 2858.000000)">
                <g id="Wechat" transform="translate(587.000000, 179.000000)">
                    <path d="M0,7.5 C0,3.35786417 3.35786417,0 7.5,0 C11.6421358,0 15,3.35786417 15,7.5 C15,11.6421358 11.6421358,15 7.5,15 C3.35786417,15 0,11.6421358 0,7.5 Z" id="back" fill="#45B035"></path>
                    <g id="Group-5" transform="translate(3.000000, 4.000000)" fill="#FFFFFF">
                        <path d="M2.3285,2.36969697 C2.0515,2.36969697 1.827,2.15854545 1.827,1.89866667 C1.827,1.63854545 2.0515,1.42812121 2.3285,1.42812121 C2.6055,1.42812121 2.8305,1.63854545 2.8305,1.89866667 C2.8305,2.15854545 2.6055,2.36969697 2.3285,2.36969697 M4.814,1.42812121 C5.091,1.42812121 5.31525,1.63854545 5.31525,1.89866667 C5.31525,2.15854545 5.091,2.36969697 4.814,2.36969697 C4.53675,2.36969697 4.31275,2.15854545 4.31275,1.89866667 C4.31275,1.63854545 4.53675,1.42812121 4.814,1.42812121 M6.95075,2.45018182 C7.00125,2.45018182 7.05125,2.45066667 7.101,2.45333333 C6.838,1.06351515 5.35775,0 3.57125,0 C1.59875,0 0,1.29672727 0,2.89624242 C0,3.83418182 0.5495,4.66787879 1.40175,5.19709091 C1.41275,5.20387879 1.4345,5.21721212 1.4345,5.21721212 L1.0895,6.26521212 L2.3805,5.62763636 C2.3805,5.62763636 2.421,5.63878788 2.44125,5.64460606 C2.796,5.74036364 3.1765,5.79224242 3.57125,5.79224242 C3.65175,5.79224242 3.73175,5.78909091 3.81125,5.78521212 C3.738,5.56484848 3.69775,5.33333333 3.69775,5.09430303 C3.69775,3.63369697 5.15475,2.45018182 6.95075,2.45018182" id="Fill-1"></path>
                        <path d="M5.504025,4.26838788 C5.504025,4.04923636 5.694025,3.87105455 5.927775,3.87105455 C6.162025,3.87105455 6.351775,4.04923636 6.351775,4.26838788 C6.351775,4.48850909 6.162025,4.66693333 5.927775,4.66693333 C5.694025,4.66693333 5.504025,4.48850909 5.504025,4.26838788 M7.603775,4.26838788 C7.603775,4.04923636 7.793275,3.87105455 8.027275,3.87105455 C8.261525,3.87105455 8.451025,4.04923636 8.451025,4.26838788 C8.451025,4.48850909 8.261525,4.66693333 8.027275,4.66693333 C7.793275,4.66693333 7.603775,4.48850909 7.603775,4.26838788 M3.960275,5.11129697 C3.960275,6.46281212 5.311525,7.55832727 6.978025,7.55832727 C7.311275,7.55832727 7.632775,7.51420606 7.932275,7.43299394 C7.949525,7.4286303 7.983775,7.41869091 7.983775,7.41869091 L9.074025,7.95784242 L8.782525,7.07202424 C8.782525,7.07202424 8.801025,7.06087273 8.810275,7.05529697 C9.530025,6.60826667 9.994525,5.90402424 9.994525,5.11129697 C9.994525,3.76026667 8.643775,2.66475152 6.978025,2.66475152 C5.311525,2.66475152 3.960275,3.76026667 3.960275,5.11129697" id="Fill-2"></path>
                    </g>
                </g>
            </g>
        </g>
    </g>
</svg>